<svg width="152" height="129" viewBox="0 0 152 129" fill="none" xmlns="http://www.w3.org/2000/svg">
<g clip-path="url(#clip0)">
<path d="M81.5885 5.65672L148.203 116.213C150.832 120.577 147.699 126.147 142.615 126.147H9.38661C4.30282 126.147 1.16956 120.577 3.79859 116.213L70.4126 5.65682C72.9524 1.44172 79.0492 1.44172 81.5885 5.65672Z" stroke="#D93025" stroke-width="5"/>
<path d="M78.4692 43.2703C78.4692 41.6758 77.1801 40.3832 75.5901 40.3832C74 40.3832 72.7109 41.6758 72.7109 43.2703V89.5189C72.7109 91.1134 74 92.406 75.5901 92.406C77.1801 92.406 78.4692 91.1134 78.4692 89.5189V43.2703Z" fill="#D93025"/>
<path d="M75.5895 108.171C78.9968 108.171 81.759 105.524 81.759 102.259C81.759 98.9942 78.9968 96.3474 75.5895 96.3474C72.1821 96.3474 69.4199 98.9942 69.4199 102.259C69.4199 105.524 72.1821 108.171 75.5895 108.171Z" fill="#D93025"/>
</g>
<defs>
<clipPath id="clip0">
<rect width="152" height="129" fill="white"/>
</clipPath>
</defs>
</svg>
